# File created by Blade
# Date/Time:  Wed Jan 21 18:34:34 2015
#---------------------------------------------------------
:version 1.10
:name HOM
:units
  mass 1.0
  length 1.000000
  angle deg
:documentation
     Acclaim Skeleton File
:root
   axis xyz
   order TX TY TZ RX RY RZ
   position 0.000000 0.000000 0.000000
   orientation 0 0 0
:bonedata
   begin
      id 1
      name RightUpLeg_dum
      direction -1.000000 0.000000 0.000000
      length 3.693983
      axis 0.0 0.0 0.0 xyz
   end
   begin
      id 2
      name LeftUpLeg_dum
      direction 1.000000 0.000000 0.000000
      length 3.693983
      axis 0.0 0.0 0.0 xyz
   end
   begin
      id 3
      name Spine_dum
      direction 0.000000 1.000000 0.000000
      length 2.392956
      axis 0.0 0.0 0.0 xyz
   end
   begin
      id 4
      name RightUpLeg
      direction 0.000000 -1.000000 0.000000
      length 15.795667
      axis 0.0 0.0 0.0 xyz
      dof rx ry rz
   end
   begin
      id 5
      name RightLeg
      direction 0.000000 -1.000000 0.000000
      length 14.766989
      axis 0.0 0.0 0.0 xyz
      dof rx ry rz
   end
   begin
      id 6
      name RightFoot
      direction 0.000000 -0.258819 0.965926
      length 4.962790
      axis 15.0 0.0 0.0 xyz
      dof rx ry rz
   end
   begin
      id 7
      name RightToeBase
      direction 0.000000 0.000000 1.000000
      length 2.952750
      axis 0.0 0.0 0.0 xyz
      dof rx ry rz
   end
   begin
      id 8
      name LeftUpLeg
      direction 0.000000 -1.000000 0.000000
      length 15.795667
      axis 0.0 0.0 0.0 xyz
      dof rx ry rz
   end
   begin
      id 9
      name LeftLeg
      direction 0.000000 -1.000000 0.000000
      length 14.766989
      axis 0.0 0.0 0.0 xyz
      dof rx ry rz
   end
   begin
      id 10
      name LeftFoot
      direction 0.000000 -0.258819 0.965926
      length 4.962790
      axis 15.0 0.0 0.0 xyz
      dof rx ry rz
   end
   begin
      id 11
      name LeftToeBase
      direction 0.000000 0.000000 1.000000
      length 2.952750
      axis 0.0 0.0 0.0 xyz
      dof rx ry rz
   end
   begin
      id 12
      name Spine
      direction 0.000000 1.000000 0.000000
      length 0.000000
      axis 0.0 0.0 0.0 xyz
      dof rx ry rz
   end
   begin
      id 13
      name Spine_dum1
      direction 0.000000 1.000000 0.000000
      length 13.207411
      axis 0.0 0.0 0.0 xyz
   end
   begin
      id 14
      name Spine_dum2
      direction 0.000000 1.000000 0.000000
      length 13.207411
      axis 0.0 0.0 0.0 xyz
   end
   begin
      id 15
      name Spine_dum3
      direction 0.000000 1.000000 0.000000
      length 19.250100
      axis 0.0 0.0 0.0 xyz
   end
   begin
      id 16
      name RightShoulder
      direction -1.000000 0.000000 0.000000
      length 8.140465
      axis 0.0 0.0 90.0 xyz
      dof rx ry rz
   end
   begin
      id 17
      name RightArm
      direction -1.000000 0.000000 0.000000
      length 10.649840
      axis 0.0 0.0 90.0 xyz
      dof rx ry rz
   end
   begin
      id 18
      name RightForeArm
      direction -1.000000 0.000000 0.000000
      length 8.304624
      axis 0.0 0.0 90.0 xyz
      dof ry rz rx
   end
   begin
      id 19
      name RightHand
      direction -1.000000 0.000000 0.000000
      length 0.000000
      axis 0.0 0.0 90.0 xyz
      dof rx ry rz
   end
   begin
      id 20
      name RightHand_dum1
      direction -1.000000 0.000000 0.000000
      length 3.937000
      axis 0.0 0.0 90.0 xyz
   end
   begin
      id 21
      name RightHand_dum2
      direction 0.000000 0.000000 0.000000
      length 0.000000
      axis 0.0 0.0 90.0 xyz
   end
   begin
      id 22
      name RightHandThumb1
      direction 0.000000 0.000000 1.000000
      length 3.937000
      axis 0.0 0.0 90.0 xyz
      dof rx rz ry
   end
   begin
      id 23
      name LeftShoulder
      direction 1.000000 0.000000 0.000000
      length 8.140465
      axis 0.0 0.0 -90.0 xyz
      dof rx ry rz
   end
   begin
      id 24
      name LeftArm
      direction 1.000000 0.000000 0.000000
      length 10.649840
      axis 0.0 0.0 -90.0 xyz
      dof rx ry rz
   end
   begin
      id 25
      name LeftForeArm
      direction 1.000000 0.000000 0.000000
      length 8.304624
      axis 0.0 0.0 -90.0 xyz
      dof ry rz rx
   end
   begin
      id 26
      name LeftHand
      direction 1.000000 0.000000 0.000000
      length 0.000000
      axis 0.0 0.0 -90.0 xyz
      dof rx ry rz
   end
   begin
      id 27
      name LeftHand_dum1
      direction 1.000000 0.000000 0.000000
      length 3.937000
      axis 0.0 0.0 -90.0 xyz
   end
   begin
      id 28
      name LeftHand_dum2
      direction 0.000000 0.000000 0.000000
      length 0.000000
      axis 0.0 0.0 -90.0 xyz
   end
   begin
      id 29
      name LeftHandThumb1
      direction 0.000000 0.000000 1.000000
      length 3.937000
      axis 0.0 0.0 -90.0 xyz
      dof rx rz ry
   end
   begin
      id 30
      name Head
      direction 0.000000 1.000000 0.000000
      length 4.527550
      axis 0.0 0.0 0.0 xyz
      dof rx ry rz
   end
:hierarchy
   begin
      root RightUpLeg_dum LeftUpLeg_dum Spine_dum
      RightUpLeg_dum RightUpLeg
      LeftUpLeg_dum LeftUpLeg
      Spine_dum Spine
      RightUpLeg RightLeg
      RightLeg RightFoot
      RightFoot RightToeBase
      LeftUpLeg LeftLeg
      LeftLeg LeftFoot
      LeftFoot LeftToeBase
      Spine Spine_dum1 Spine_dum2 Spine_dum3
      Spine_dum1 RightShoulder
      Spine_dum2 LeftShoulder
      Spine_dum3 Head
      RightShoulder RightArm
      RightArm RightForeArm
      RightForeArm RightHand
      RightHand RightHand_dum1 RightHand_dum2
      RightHand_dum2 RightHandThumb1
      LeftShoulder LeftArm
      LeftArm LeftForeArm
      LeftForeArm LeftHand
      LeftHand LeftHand_dum1 LeftHand_dum2
      LeftHand_dum2 LeftHandThumb1
   end

# File created by Blade
# Date/Time:  Wed Jan 21 18:34:41 2015
# Frame Rate: 120.000 fps
#------------------------------------------------------
:FULLY-SPECIFIED
:DEGREES
529
root 2.916504 32.926238 -7.222725 44.559839 -21.557712 1.140932
RightUpLeg -47.234802 -11.304503 4.413544
RightLeg 4.192361 -0.000000 -0.000000
RightFoot -4.317415 7.390442 33.319163
RightToeBase 20.916998 -0.000000 -0.000000
LeftUpLeg -37.738543 13.328324 -9.373690
LeftLeg 1.772671 -0.000000 -0.000000
LeftFoot -7.584749 -1.962236 -5.676942
LeftToeBase 5.096939 -0.000000 -0.000000
Spine -49.616765 -9.435641 14.060332
RightShoulder -19.624092 16.416453 -50.603419
RightArm -1.957410 -12.752279 39.209291
RightForeArm 6.851092 0.000000 -5.891214
RightHand 11.036255 0.000000 3.406050
RightHandThumb1 -24.326973 -0.000000 -32.862282
LeftShoulder -4.377476 -6.536249 34.829185
LeftArm 44.398548 0.078084 -37.007595
LeftForeArm 21.399928 -0.000000 -1.318623
LeftHand -22.893080 -0.000000 -7.244670
LeftHandThumb1 -26.253704 0.000000 33.147579
Head -2.514668 -11.076522 -2.782259
530
root 2.925378 32.921458 -7.252553 44.566028 -20.598436 1.086267
RightUpLeg -47.109072 -11.570999 4.718001
RightLeg 4.150725 -0.000000 -0.000000
RightFoot -4.629991 7.022250 33.426800
RightToeBase 20.813103 -0.000000 -0.000000
LeftUpLeg -37.983790 13.282149 -9.336218
LeftLeg 1.848104 -0.000000 -0.000000
LeftFoot -7.695515 -1.897277 -5.477532
LeftToeBase 5.227340 -0.000000 -0.000000
Spine -49.503805 -9.274175 14.017031
RightShoulder -19.562029 16.504390 -50.592269
RightArm -1.906265 -12.778050 39.212945
RightForeArm 6.872736 -0.000000 -5.904887
RightHand 10.748402 -0.000000 3.280788
RightHandThumb1 -24.326973 -0.000000 -32.862282
LeftShoulder -4.527269 -6.520433 34.878147
LeftArm 44.099670 0.158107 -36.915900
LeftForeArm 21.270179 -0.000000 -1.478166
LeftHand -22.945388 -0.000000 -7.190113
LeftHandThumb1 -26.253704 0.000000 33.147579
Head -2.526165 -10.525955 -2.893288
531
root 2.932343 32.917022 -7.278407 44.562726 -19.608952 1.029451
RightUpLeg -46.939097 -11.846353 5.025314
RightLeg 4.061811 -0.000000 -0.000000
RightFoot -4.932247 6.648461 33.598830
RightToeBase 20.791321 -0.000000 -0.000000
LeftUpLeg -38.211652 13.281916 -9.302832
LeftLeg 1.908411 -0.000000 -0.000000
LeftFoot -7.779649 -2.015418 -5.297043
LeftToeBase 5.360694 -0.000000 -0.000000
Spine -49.419108 -9.093736 13.938607
RightShoulder -19.448595 16.643632 -50.561813
RightArm -2.000469 -12.900938 39.182025
RightForeArm 6.909213 -0.000000 -5.896497
RightHand 11.120545 -0.000000 3.324994
RightHandThumb1 -24.326973 -0.000000 -32.862282
LeftShoulder -4.610126 -6.291685 34.848880
LeftArm 44.010200 0.078683 -36.727012
LeftForeArm 21.125437 -0.000000 -1.697570
LeftHand -23.135809 -0.000000 -7.389925
LeftHandThumb1 -26.253704 0.000000 33.147579
Head -2.416078 -9.994577 -2.964742
532
root 2.941761 32.912789 -7.308510 44.561782 -18.579338 0.979452
RightUpLeg -46.780356 -12.127364 5.338733
RightLeg 3.972059 -0.000000 -0.000000
RightFoot -5.279014 6.219608 33.776293
RightToeBase 20.820985 -0.000000 -0.000000
LeftUpLeg -38.479525 13.245391 -9.248476
LeftLeg 2.027266 -0.000000 -0.000000
LeftFoot -7.891422 -2.150370 -5.112459
LeftToeBase 5.517057 -0.000000 -0.000000
Spine -49.287613 -8.946176 13.911761
RightShoulder -19.439997 16.630773 -50.522097
RightArm -1.890191 -12.863595 39.144028
RightForeArm 6.822187 -0.000000 -5.901005
RightHand 11.056990 -0.000000 3.290419
RightHandThumb1 -24.326973 -0.000000 -32.862282
LeftShoulder -4.793744 -6.201205 34.849352
LeftArm 43.787737 -0.023485 -36.689503
LeftForeArm 21.252048 -0.000000 -1.711995
LeftHand -23.284420 0.000000 -7.694995
LeftHandThumb1 -26.253704 0.000000 33.147579
Head -2.487804 -9.474258 -3.048257
